<svg width="340" height="170" xmlns="http://www.w3.org/2000/svg" style="margin: auto;" class="el-tooltip" color-interpolation-filters="sRGB" preserveAspectRatio="xMidYMid meet" version="1.0">

 <g>
  <title>background</title>
  <rect fill="none" id="canvas_background" height="172" width="342" y="-1" x="-1"/>
 </g>
 <g>
  <title>Layer 1</title>
  <rect stroke="null" id="svg_1" class="background" fill="#fff" height="170.000002" width="340" y="0" x="0"/>
  <rect stroke="null" x="0" y="0" id="svg_2" class="watermarklayer" fill="url(#watermark)" height="161.000007" width="340"/>
  <g stroke="null" id="svg_3" class="icon-text-wrapper icon-svg-group iconsvg" fill="#5fa224">
   <g stroke="null" id="svg_4" class="iconsvg-imagesvg">
    <!---->
   </g>
   <g stroke="null" id="svg_5">
    <g stroke="null" id="svg_6" class="tp-name iconsvg-namesvg" data-gra="path-name">
     <g stroke="null" id="svg_7">
      <path stroke="null" id="svg_8" d="m1.965002,105.150795l63.623513,-80.831187l-63.623513,0l0,-22.229613l87.739149,0l0,22.97613l-61.535288,79.338153l61.535288,0l0,22.18814l-87.739149,0l0,-21.441623zm137.452387,-70.753209l0,0q20.444401,0 30.178226,14.557079l0,0q8.92548,13.271411 8.92548,33.427366l0,0q0,21.234257 -11.215791,33.925044l0,0q-10.306403,11.612485 -28.191043,11.612485l0,0q-18.490899,0 -28.932026,-13.064045l0,0q-9.733825,-11.778377 -9.733825,-34.381249l0,0q0,-19.03618 9.26229,-31.726967l0,0q10.306403,-14.142347 29.706691,-14.349713zm0.134724,19.03618l0,0q-18.322494,0 -18.322494,27.994382l0,0q0,11.405119 3.031295,17.33578l0,0q5.018477,10.119451 15.459604,10.119451l0,0q18.019365,0 18.019365,-27.82849l0,0q0,-27.247866 -18.18777,-27.621124zm71.572243,17.916405l42.707578,0l0,19.409438l-42.707578,0q0.572578,8.958202 4.681667,12.690787q4.109089,3.732584 13.337698,3.732584l0,0l24.688214,0l0,19.409438l-26.978525,0q-8.790755,0 -14.314449,-1.949238q-5.523693,-1.949238 -10.373765,-6.42834l0,0q-13.506103,-12.898152 -13.506103,-38.279726l0,0q0,-16.423371 7.140384,-28.740899l0,0q4.850072,-8.377578 11.653645,-11.94427q6.837254,-3.525219 17.918321,-3.525219l0,0l28.460492,0l0,19.409438l-26.978525,0q-8.319221,0 -11.653645,3.442272q-3.334424,3.442272 -4.075408,12.773733l0,0zm90.938849,35.832809l16.672122,0l0,-71.458253l20.309676,0l0,89.001399q0,17.709039 -7.578237,25.920724q-7.578237,8.253159 -24.115636,8.253159l0,0l-36.207134,0l0,-19.450912l36.207134,0q6.534125,0 8.487626,-1.658926l0,0q1.515647,-1.119775 1.953501,-2.903121q0.471535,-1.783346 0.94307,-8.294632l0,0l-18.053046,0q-31.222338,0.912409 -29.538285,-40.104545l0,0l0,-50.763147l20.309676,0l0,48.31623q0,14.18382 2.020863,18.662922q2.054544,4.479101 8.588669,4.479101l0,0z"/>
     </g>
     <!---->
     <!---->
     <!---->
     <!---->
     <!---->
     <!---->
     <!---->
    </g>
    <!---->
   </g>
  </g>
 </g>
</svg>